<?xml version="1.0" encoding="utf-8"?>
<!-- Generator: Adobe Illustrator 16.0.4, SVG Export Plug-In . SVG Version: 6.00 Build 0)  -->
<!DOCTYPE svg PUBLIC "-//W3C//DTD SVG 1.1//EN" "http://www.w3.org/Graphics/SVG/1.1/DTD/svg11.dtd">
<svg version="1.1" id="svg2816" xmlns:svg="http://www.w3.org/2000/svg"
	 xmlns="http://www.w3.org/2000/svg" xmlns:xlink="http://www.w3.org/1999/xlink" x="0px" y="0px" width="385px" height="43px"
	 viewBox="7.5 10 385 43" enable-background="new 7.5 10 385 43" xml:space="preserve">
<path id="path2966" fill="#D21242" d="M16.762,12.078h20.289l6.086,16.906c-2.638-1.893-5.411-5.409-6.764-6.762
	c-1.418-1.421-3.381-0.678-3.381-0.678c-4.734,2.706-1.353,14.878,3.381,28.404H16.762c5.411-12.173,6.764-22.317,6.086-25.023
	c0,0-0.593-2.827-2.028-3.381c-1.254-0.484-3.381,0.678-3.381,0.678c-2.706,2.028-4.058,4.056-7.439,6.762L16.762,12.078z"/>
<path id="path2974" fill="#D21242" d="M335.962,49.947h-26.376c0-1.014,4.059-8.927,4.059-17.583c0-9.264-4.059-19.341-4.059-20.287
	h26.376l2.705,12.173c-2.502-0.068-14.474-7.101-16.906-4.734c-4.464,4.262-3.719,9.399,6.762,6.762v7.439
	c-0.675,0-7.237-2.57-8.114-0.676c-0.881,1.961-1.757,10.078,2.703,9.468c4.736-0.675,12.243-5.95,15.556-6.087L335.962,49.947z"/>
<path id="path2982" fill="#D21242" d="M179.067,49.947h-26.375c0-1.014,4.058-8.927,4.058-17.583c0-9.264-4.058-19.341-4.058-20.287
	h26.375l2.706,12.173c-2.502-0.068-14.472-7.101-16.908-4.734c-4.461,4.262-3.718,9.399,6.764,6.762v7.439
	c-0.677,0-7.236-2.57-8.115-0.676c-0.88,1.961-1.759,10.078,2.704,9.468c4.734-0.675,12.243-5.95,15.556-6.087L179.067,49.947z"/>
<path id="path2990" fill="#D21242" d="M250.753,12.078h24.345c0,0.54-9.467,4.058-8.791,20.287c0.338,9.334-2.502,13.39-8.79,16.909
	c-3.114,1.689-7.643,1.555-10.822-0.678c-1.825-1.285-3.247-3.517-4.733-6.087c-2.03-3.38-7.439-4.733-7.439-4.733
	c2.028-0.811,14.201-7.439,16.231-8.117c-8.116,7.441,2.907,11.294,5.409,8.117C264.276,27.631,254.809,14.783,250.753,12.078"/>
<path id="path2998" fill="#D21242" d="M382.561,12.777c1.352,1.353,6.087-1.217,7.439-0.675L382.561,26.3
	c0.204-2.638-1.353-5.409-2.027-6.084c-0.406-0.406-1.354-2.03-4.736-2.03c-2.567,0-4.598,0.474-5.408,2.03
	c-1.352,2.704,0,6.491,4.735,7.437c3.381,0.675,8.788,4.733,8.788,11.495c0,8.993-4.732,10.818-12.171,10.818
	c-8.114,0-6.76-0.676-11.495-1.352c-1.351,0.676-4.057,2.162-6.085,1.352l5.409-15.552c0.879,0.067,1.624,8.114,6.084,8.114
	c2.03,0,5.545-2.771,3.384-5.408c-3.384-4.059-4.057-2.031-8.115-6.087c-1.219-1.217-2.703-3.381-2.908-8.047
	c-0.134-3.717,2.5-7.64,5.612-9.535C370.117,9.532,381.683,12.777,382.561,12.777"/>
<path id="path3006" fill="#D21242" d="M348.075,26.301l1.354-5.409c0,0-8.79-6.086-2.704-10.82c1.351-1.014,5.409-1.351,8.112,2.028
	C358.489,16.698,348.075,26.301,348.075,26.301"/>
<path fill="#D21242" d="M76.95,49.947c-0.135-1.893-3.383-4.733-6.086-9.467c-2.231-3.923-3.922-9.873-4.056-10.82
	c0,0,5.477-4.194,6.086-8.792c0.54-3.787-1.354-8.114-4.058-8.792H43.137c0,1.893,6.762,4.734,5.409,20.964
	c0,0-2.028,13.525-5.409,16.906h15.554c-3.381-4.056-5.409-15.553-2.706-16.906c0,0,2.028-1.353,3.381,0.678
	c0,0,2.301,1.893,3.383,4.733c2.704,6.762,0.675,10.346,0.675,11.495H76.95z M63.424,23.574c-0.271,2.839-6.086,5.409-7.439,5.409
	c0,0,0.677-2.771,0.677-5.409c0-2.367-0.677-6.086-0.677-6.086S64.1,16.811,63.424,23.574z"/>
<path fill="#D21242" d="M105.354,24.25c-2.096-6.086-1.082-11.43-1.353-12.173H88.447c0,0.879,1.353,3.381-1.354,12.173
	c-2.568,8.521-8.79,24.48-8.79,25.698h12.848c-0.133-2.163-2.704-11.497,2.706-12.85c1.151-0.269,3.922-0.743,5.411,1.353
	c2.369,3.312,4.056,10.888,4.056,11.497h12.853C116.176,49.948,109.141,35.407,105.354,24.25z M100.62,32.365h-8.792
	c0,0,1.895-3.194,2.706-5.409c0.745-2.044,1.353-5.411,1.353-5.411C98.592,31.689,101.973,32.365,100.62,32.365z"/>
<path fill="#D21242" d="M137.816,11.875h-18.938c0.138,4.259,6.088,9.467,4.736,21.64c-1.082,9.738-4.058,16.231-4.058,16.231
	c4.329,0,12.985,0.404,17.583,0c7.439-0.678,13.661-9.535,13.525-19.612C150.596,21.816,143.902,13.903,137.816,11.875z
	 M133.081,39.129c0,0,0,2.703-2.028-6.086c-1.285-5.614,0-14.203,0-14.203s9.874,2.977,10.145,10.145
	C141.466,36.694,135.11,38.451,133.081,39.129z"/>
<path fill="#D21242" d="M220.318,49.947c-0.133-1.893-3.381-4.733-6.084-9.467c-2.231-3.923-3.923-9.873-4.059-10.82
	c0,0,5.477-4.194,6.086-8.792c0.543-3.787-1.352-8.114-4.056-8.792h-25.7c0,1.893,6.764,4.734,5.411,20.964
	c0,0-2.03,13.525-5.411,16.906h15.556c-3.383-4.056-5.411-15.553-2.706-16.906c0,0,2.029-1.353,3.38,0.678
	c0,0,2.298,1.893,3.383,4.733c2.704,6.762,0.674,10.346,0.674,11.495H220.318z M206.793,23.574
	c-0.269,2.839-6.086,5.409-7.437,5.409c0,0,0.678-2.771,0.678-5.409c0-2.367-0.678-6.086-0.678-6.086S207.471,16.811,206.793,23.574
	z"/>
<path fill="#D21242" d="M290.652,12.077c-8.963,0-16.229,8.629-16.229,19.272c0,10.646,7.267,19.275,16.229,19.275
	c8.964,0,16.232-8.629,16.232-19.275C306.885,20.707,299.616,12.077,290.652,12.077z M288.623,39.805
	c-4.482,0-8.113-3.635-8.113-8.116c0-4.481,3.631-8.114,8.113-8.114c4.481,0,8.115,3.633,8.115,8.114
	C296.738,36.17,293.104,39.805,288.623,39.805z"/>
</svg>
