<?xml version="1.0" encoding="utf-8"?>
<!-- Generator: Adobe Illustrator 16.0.4, SVG Export Plug-In . SVG Version: 6.00 Build 0)  -->
<!DOCTYPE svg PUBLIC "-//W3C//DTD SVG 1.1//EN" "http://www.w3.org/Graphics/SVG/1.1/DTD/svg11.dtd">
<svg version="1.1" id="svg2816" xmlns:svg="http://www.w3.org/2000/svg"
	 xmlns="http://www.w3.org/2000/svg" xmlns:xlink="http://www.w3.org/1999/xlink" x="0px" y="0px" width="216px" height="23.76px"
	 viewBox="10 9.333 216 23.76" enable-background="new 10 9.333 216 23.76" xml:space="preserve">
<path id="path2966" fill="#FFFFFF" d="M13.846,11.182H25.38l3.459,9.61c-1.501-1.076-3.076-3.073-3.845-3.843
	c-0.806-0.809-1.922-0.385-1.922-0.385c-2.69,1.539-0.768,8.457,1.922,16.145H13.846c3.076-6.919,3.844-12.685,3.46-14.223
	c0,0-0.339-1.607-1.154-1.922c-0.712-0.275-1.922,0.385-1.922,0.385c-1.536,1.153-2.306,2.305-4.228,3.843L13.846,11.182z"/>
<path id="path2974" fill="#FFFFFF" d="M195.286,32.707h-14.992c0-0.574,2.307-5.073,2.307-9.994c0-5.264-2.307-10.994-2.307-11.531
	h14.992l1.54,6.92c-1.423-0.04-8.229-4.038-9.612-2.692c-2.537,2.422-2.113,5.343,3.844,3.844v4.229
	c-0.384,0-4.114-1.46-4.614-0.384c-0.499,1.115-0.997,5.729,1.538,5.382c2.692-0.385,6.959-3.382,8.844-3.46L195.286,32.707z"/>
<path id="path2982" fill="#FFFFFF" d="M106.105,32.707H91.111c0-0.574,2.308-5.073,2.308-9.994c0-5.264-2.308-10.994-2.308-11.531
	h14.994l1.537,6.92c-1.422-0.04-8.225-4.038-9.611-2.692c-2.537,2.422-2.114,5.343,3.844,3.844v4.229
	c-0.384,0-4.113-1.46-4.612-0.384c-0.501,1.115-1,5.729,1.537,5.382c2.691-0.385,6.959-3.382,8.842-3.46L106.105,32.707z"/>
<path id="path2990" fill="#FFFFFF" d="M146.852,11.182h13.838c0,0.308-5.38,2.306-4.997,11.531c0.192,5.306-1.423,7.611-4.998,9.613
	c-1.77,0.959-4.343,0.883-6.152-0.387c-1.037-0.73-1.845-1.999-2.689-3.459c-1.154-1.923-4.228-2.691-4.228-2.691
	c1.152-0.459,8.071-4.227,9.226-4.614c-4.612,4.23,1.652,6.42,3.075,4.614C154.539,20.024,149.157,12.721,146.852,11.182"/>
<path id="path2998" fill="#FFFFFF" d="M221.774,11.581c0.769,0.769,3.459-0.693,4.228-0.384l-4.228,8.069
	c0.114-1.497-0.771-3.072-1.153-3.458c-0.23-0.23-0.769-1.153-2.691-1.153c-1.461,0-2.615,0.27-3.074,1.153
	c-0.768,1.538,0,3.689,2.691,4.228c1.92,0.384,4.996,2.69,4.996,6.535c0,5.111-2.69,6.148-6.92,6.148
	c-4.611,0-3.842-0.383-6.533-0.768c-0.768,0.385-2.307,1.229-3.458,0.768l3.073-8.839c0.501,0.038,0.924,4.613,3.459,4.613
	c1.155,0,3.15-1.576,1.924-3.075c-1.924-2.307-2.307-1.154-4.612-3.46c-0.694-0.691-1.538-1.922-1.655-4.573
	c-0.076-2.114,1.422-4.343,3.191-5.42C214.701,9.735,221.273,11.581,221.774,11.581"/>
<path id="path3006" fill="#FFFFFF" d="M202.171,19.268l0.771-3.075c0,0-4.997-3.46-1.54-6.151c0.769-0.577,3.076-0.768,4.612,1.153
	C208.09,13.808,202.171,19.268,202.171,19.268"/>
<path fill="#FFFFFF" d="M48.057,32.707c-0.076-1.074-1.922-2.689-3.458-5.379c-1.269-2.229-2.232-5.613-2.306-6.152
	c0,0,3.114-2.382,3.459-4.995c0.306-2.154-0.77-4.613-2.307-4.999H28.839c0,1.075,3.842,2.69,3.075,11.917
	c0,0-1.153,7.687-3.075,9.608h8.84c-1.921-2.302-3.074-8.839-1.538-9.608c0,0,1.152-0.769,1.922,0.386c0,0,1.309,1.075,1.924,2.689
	c1.536,3.844,0.382,5.881,0.382,6.533H48.057z M40.369,17.717c-0.153,1.614-3.458,3.075-4.228,3.075c0,0,0.384-1.576,0.384-3.075
	c0-1.346-0.384-3.458-0.384-3.458S40.754,13.872,40.369,17.717z"/>
<path fill="#FFFFFF" d="M64.204,18.103c-1.191-3.46-0.614-6.498-0.769-6.92h-8.84c0,0.499,0.768,1.922-0.771,6.92
	c-1.46,4.842-4.997,13.913-4.997,14.606h7.304c-0.076-1.23-1.536-6.536,1.538-7.303c0.655-0.155,2.229-0.424,3.074,0.768
	c1.349,1.884,2.308,6.188,2.308,6.536h7.307C70.357,32.709,66.356,24.443,64.204,18.103z M61.512,22.714h-4.996
	c0,0,1.076-1.815,1.536-3.073c0.424-1.164,0.768-3.077,0.768-3.077C60.359,22.331,62.282,22.714,61.512,22.714z"/>
<path fill="#FFFFFF" d="M82.656,11.068H71.892c0.077,2.42,3.46,5.38,2.69,12.299c-0.615,5.537-2.306,9.227-2.306,9.227
	c2.461,0,7.38,0.23,9.995,0c4.229-0.385,7.765-5.421,7.689-11.148C89.921,16.717,86.116,12.22,82.656,11.068z M79.964,26.558
	c0,0,0,1.538-1.152-3.457c-0.731-3.193,0-8.075,0-8.075s5.612,1.691,5.766,5.766C84.73,25.176,81.118,26.173,79.964,26.558z"/>
<path fill="#FFFFFF" d="M129.552,32.707c-0.074-1.074-1.922-2.689-3.457-5.379c-1.269-2.229-2.23-5.613-2.306-6.152
	c0,0,3.112-2.382,3.458-4.995c0.31-2.154-0.768-4.613-2.306-4.999h-14.607c0,1.075,3.844,2.69,3.074,11.917
	c0,0-1.152,7.687-3.074,9.608h8.842c-1.924-2.302-3.077-8.839-1.538-9.608c0,0,1.154-0.769,1.922,0.386c0,0,1.306,1.075,1.922,2.689
	c1.538,3.844,0.383,5.881,0.383,6.533H129.552z M121.864,17.717c-0.152,1.614-3.46,3.075-4.228,3.075c0,0,0.386-1.576,0.386-3.075
	c0-1.346-0.386-3.458-0.386-3.458S122.249,13.872,121.864,17.717z"/>
<path fill="#FFFFFF" d="M169.532,11.182c-5.096,0-9.227,4.905-9.227,10.955c0,6.053,4.131,10.957,9.227,10.957
	c5.095,0,9.227-4.904,9.227-10.957C178.759,16.087,174.626,11.182,169.532,11.182z M168.378,26.944
	c-2.548,0-4.612-2.068-4.612-4.615c0-2.547,2.064-4.613,4.612-4.613c2.546,0,4.612,2.065,4.612,4.613
	C172.991,24.876,170.925,26.944,168.378,26.944z"/>
</svg>
